<?xml version="1.0" standalone="yes"?>
<svg xmlns="http://www.w3.org/2000/svg" width="612" height="408">

<path style="fill:#999999; stroke:none;" d="M260 92C261.769 92.7789 263.036 92.9124 265 93C263.231 92.2211 261.964 92.0876 260 92z"/>
<path style="fill:#555555; stroke:none;" d="M265 92L266 93L265 92z"/>
<path style="fill:#333333; stroke:none;" d="M255 93L256 94L255 93z"/>
<path style="fill:#cbcbcb; stroke:none;" d="M256 93C257.506 93.683 258.315 93.8259 260 94C258.494 93.317 257.685 93.1741 256 93z"/>
<path style="fill:#fefefe; stroke:none;" d="M236 198C225.345 195.463 212.646 198.695 205.213 207.04C194.937 218.576 196.477 238.197 209.004 247.366C213.498 250.655 218.57 252.424 224 253.385C229.419 254.345 234.735 254.117 240 252.492C252.645 248.586 264.044 238.331 267.167 225C269.449 215.257 268 203.946 268 194C268 182.591 268.463 171.354 268.961 160C269.322 151.758 265.619 134.721 273.278 129.009C278.044 125.455 284.722 127.807 290 128.572C301.801 130.281 313.516 133.183 325 136.407C330.508 137.952 336.595 139.261 340.143 144.301C343.693 149.344 342.997 157.169 343 163C343.001 165.452 342.388 169.19 344.028 171.262C345.803 173.503 350.433 174.025 353 175.001C359.582 177.501 366.471 179.888 371.96 184.479C386.681 196.794 382.067 217.414 372.498 231.424C368.457 237.339 363.1 242.174 359 248C368.512 246.166 378.684 238.344 387 233.396C393.14 229.743 399.812 225.908 404.957 220.907C419.66 206.612 420.052 182.239 404.91 168.3C395.034 159.208 381.7 153.305 370 146.919C348.681 135.283 327.039 123.889 306 111.775C288.145 101.494 259.637 81.1866 241.8 102.733C234.734 111.269 236.36 121.779 235.961 132C235.109 153.88 236 176.056 236 198z"/>
<path style="fill:#cccccc; stroke:none;" d="M265 93C266.769 93.7789 268.036 93.9124 270 94C268.231 93.2211 266.964 93.0876 265 93z"/>
<path style="fill:#555555; stroke:none;" d="M251 94L252 95L251 94z"/>
<path style="fill:#848484; stroke:none;" d="M252 94L253 95L252 94z"/>
<path style="fill:#555555; stroke:none;" d="M273.667 94.3333C273.222 94.7777 274.278 94.7222 274.333 94.6667C274.778 94.2222 273.722 94.2778 273.667 94.3333z"/>
<path style="fill:#757575; stroke:none;" d="M250 95L251 96L250 95z"/>
<path style="fill:#7f7f7f; stroke:none;" d="M275.667 95.3333C275.222 95.7777 276.278 95.7222 276.333 95.6667C276.778 95.2222 275.722 95.2778 275.667 95.3333z"/>
<path style="fill:#595959; stroke:none;" d="M248 96L249 97L248 96z"/>
<path style="fill:#cfcfcf; stroke:none;" d="M249 96L250 97L249 96z"/>
<path style="fill:#999999; stroke:none;" d="M277.667 96.3333C277.222 96.7777 278.278 96.7223 278.333 96.6667C278.778 96.2222 277.722 96.2779 277.667 96.3333z"/>
<path style="fill:#dddddd; stroke:none;" d="M247.667 97.3333C247.222 97.7779 248.278 97.7221 248.333 97.6667C248.778 97.2224 247.722 97.2777 247.667 97.3333z"/>
<path style="fill:#6d6d6d; stroke:none;" d="M280 97L281 98L280 97z"/>
<path style="fill:#4b4b4b; stroke:none;" d="M245 98L246 99L245 98z"/>
<path style="fill:#606060; stroke:none;" d="M282 98L283 99L282 98z"/>
<path style="fill:#a5a5a5; stroke:none;" d="M244 99L245 100L244 99z"/>
<path style="fill:#7f7f7f; stroke:none;" d="M284 99L285 100L284 99z"/>
<path style="fill:#aeaeae; stroke:none;" d="M243 100L244 101L243 100z"/>
<path style="fill:#bfbfbf; stroke:none;" d="M285 100L286 101L285 100z"/>
<path style="fill:#404040; stroke:none;" d="M286 100L287 101L286 100z"/>
<path style="fill:#999999; stroke:none;" d="M242 101L243 102L242 101z"/>
<path style="fill:#cccccc; stroke:none;" d="M286 101L287 102L286 101z"/>
<path style="fill:#949494; stroke:none;" d="M287 101L288 102L287 101M241 102L242 103L241 102z"/>
<path style="fill:#8a8a8a; stroke:none;" d="M289 102L290 103L289 102z"/>
<path style="fill:#555555; stroke:none;" d="M290 102L291 103L290 102z"/>
<path style="fill:#404040; stroke:none;" d="M240 103L241 104L240 103z"/>
<path style="fill:#c9c9c9; stroke:none;" d="M241 103L242 104L241 103z"/>
<path style="fill:#7f7f7f; stroke:none;" d="M291.667 103.333C291.222 103.778 292.278 103.722 292.333 103.667C292.778 103.222 291.722 103.278 291.667 103.333z"/>
<path style="fill:#404040; stroke:none;" d="M239.333 104.667C239.278 104.722 239.222 105.778 239.667 105.333C239.722 105.278 239.778 104.222 239.333 104.667z"/>
<path style="fill:#4b4b4b; stroke:none;" d="M293 104L294 105L293 104z"/>
<path style="fill:#b2b2b2; stroke:none;" d="M294 105L295 106L294 105z"/>
<path style="fill:#a0a0a0; stroke:none;" d="M296 106L297 107L296 106z"/>
<path style="fill:#4e4e4e; stroke:none;" d="M297 106L298 107L297 106z"/>
<path style="fill:#dddddd; stroke:none;" d="M238.333 107.667C238.278 107.722 238.222 108.778 238.667 108.333C238.722 108.278 238.778 107.222 238.333 107.667z"/>
<path style="fill:#666666; stroke:none;" d="M298.667 107.333C298.222 107.778 299.278 107.722 299.333 107.667C299.778 107.222 298.722 107.278 298.667 107.333z"/>
<path style="fill:#aaaaaa; stroke:none;" d="M300 108L301 109L300 108z"/>
<path style="fill:#a9a9a9; stroke:none;" d="M237.333 109.667C237.278 109.722 237.222 110.778 237.667 110.333C237.722 110.278 237.778 109.222 237.333 109.667z"/>
<path style="fill:#bfbfbf; stroke:none;" d="M302 109L303 110L302 109z"/>
<path style="fill:#c0c0c0; stroke:none;" d="M303 110L304 111L303 110z"/>
<path style="fill:#555555; stroke:none;" d="M304 110L305 111L304 110z"/>
<path style="fill:#686868; stroke:none;" d="M236 111L236 114C236.696 112.446 236.696 112.554 236 111z"/>
<path style="fill:#717171; stroke:none;" d="M305.667 111.333C305.222 111.778 306.278 111.722 306.333 111.667C306.778 111.222 305.722 111.278 305.667 111.333z"/>
<path style="fill:#b0b0b0; stroke:none;" d="M307 112L308 113L307 112z"/>
<path style="fill:#6d6d6d; stroke:none;" d="M308 112L309 113L308 112z"/>
<path style="fill:#dadada; stroke:none;" d="M308.667 113.333C308.222 113.778 309.278 113.722 309.333 113.667C309.778 113.222 308.722 113.278 308.667 113.333z"/>
<path style="fill:#404040; stroke:none;" d="M310 113L311 114L310 113z"/>
<path style="fill:#434343; stroke:none;" d="M235 114L235 119C235.83 116.97 235.83 116.03 235 114z"/>
<path style="fill:#404040; stroke:none;" d="M311.667 114.333C311.222 114.778 312.278 114.722 312.333 114.667C312.778 114.222 311.722 114.278 311.667 114.333z"/>
<path style="fill:#afafaf; stroke:none;" d="M312 115L313 116L312 115z"/>
<path style="fill:#7f7f7f; stroke:none;" d="M313 115L314 116L313 115z"/>
<path style="fill:#adadad; stroke:none;" d="M314 116L315 117L314 116z"/>
<path style="fill:#717171; stroke:none;" d="M315 116L316 117L315 116z"/>
<path style="fill:#4e4e4e; stroke:none;" d="M317 117L318 118L317 117z"/>
<path style="fill:#666666; stroke:none;" d="M319 118L320 119L319 118z"/>
<path style="fill:#9c9c9c; stroke:none;" d="M235 119L236 120L235 119z"/>
<path style="fill:#b6b6b6; stroke:none;" d="M320 119L321 120L320 119z"/>
<path style="fill:#808080; stroke:none;" d="M321 119L322 120L321 119z"/>
<path style="fill:#f1f1f1; stroke:none;" d="M235 120L235 137C236.883 132.514 236.883 124.486 235 120z"/>
<path style="fill:#8e8e8e; stroke:none;" d="M322 120L323 121L322 120z"/>
<path style="fill:#686868; stroke:none;" d="M324 121L325 122L324 121z"/>
<path style="fill:#626262; stroke:none;" d="M326 122L327 123L326 122z"/>
<path style="fill:#c5c5c5; stroke:none;" d="M327 123L328 124L327 123z"/>
<path style="fill:#494949; stroke:none;" d="M328 123L329 124L328 123z"/>
<path style="fill:#a5a5a5; stroke:none;" d="M328.667 124.333C328.222 124.778 329.278 124.722 329.333 124.667C329.778 124.222 328.722 124.278 328.667 124.333z"/>
<path style="fill:#939393; stroke:none;" d="M331 125L332 126L331 125z"/>
<path style="fill:#2b2b2b; stroke:none;" d="M332 125L333 126L332 125z"/>
<path style="fill:#7f7f7f; stroke:none;" d="M333.667 126.333C333.222 126.778 334.278 126.722 334.333 126.667C334.778 126.222 333.722 126.278 333.667 126.333z"/>
<path style="fill:#c8c8c8; stroke:none;" d="M275.667 127.333C275.222 127.778 276.278 127.722 276.333 127.667C276.778 127.222 275.722 127.278 275.667 127.333z"/>
<path style="fill:#8f8f8f; stroke:none;" d="M277 127C278.248 127.685 278.548 127.749 280 128C278.752 127.315 278.452 127.251 277 127z"/>
<path style="fill:#acacac; stroke:none;" d="M280 127C281.506 127.683 282.315 127.826 284 128C282.494 127.317 281.685 127.174 280 127z"/>
<path style="fill:#8e8e8e; stroke:none;" d="M335 127L336 128L335 127z"/>
<path style="fill:#9c9c9c; stroke:none;" d="M273 128L274 129L273 128z"/>
<path style="fill:#555555; stroke:none;" d="M274 128L275 129L274 128z"/>
<path style="fill:#696969; stroke:none;" d="M285 128C286.769 128.779 288.036 128.912 290 129C288.231 128.221 286.964 128.088 285 128z"/>
<path style="fill:#404040; stroke:none;" d="M337 128L338 129L337 128z"/>
<path style="fill:#c4c4c4; stroke:none;" d="M271 129L272 130L271 129z"/>
<path style="fill:#404040; stroke:none;" d="M272 129L273 130L272 129M291 129C292.248 129.685 292.548 129.749 294 130C292.752 129.315 292.452 129.251 291 129z"/>
<path style="fill:#e4e4e4; stroke:none;" d="M294 129C295.769 129.779 297.036 129.912 299 130C297.231 129.221 295.964 129.088 294 129z"/>
<path style="fill:#b4b4b4; stroke:none;" d="M338 129L339 130L338 129z"/>
<path style="fill:#464646; stroke:none;" d="M339 129L340 130L339 129z"/>
<path style="fill:#929292; stroke:none;" d="M271 130L272 131L271 130z"/>
<path style="fill:#333333; stroke:none;" d="M298 130L299 131L298 130z"/>
<path style="fill:#bdbdbd; stroke:none;" d="M299 130C300.248 130.685 300.548 130.749 302 131C300.752 130.315 300.452 130.251 299 130z"/>
<path style="fill:#666666; stroke:none;" d="M340.667 130.333C340.222 130.778 341.278 130.722 341.333 130.667C341.778 130.222 340.722 130.278 340.667 130.333z"/>
<path style="fill:#8b8b8b; stroke:none;" d="M302 131C303.506 131.683 304.315 131.826 306 132C304.494 131.317 303.685 131.174 302 131z"/>
<path style="fill:#979797; stroke:none;" d="M342 131L343 132L342 131z"/>
<path style="fill:#555555; stroke:none;" d="M343 131L344 132L343 131M270.333 132.667C270.278 132.722 270.222 133.778 270.667 133.333C270.722 133.278 270.778 132.222 270.333 132.667z"/>
<path style="fill:#666666; stroke:none;" d="M306 132C307.248 132.685 307.548 132.749 309 133C307.752 132.315 307.452 132.251 306 132z"/>
<path style="fill:#c8c8c8; stroke:none;" d="M343.667 132.333C343.222 132.778 344.278 132.722 344.333 132.667C344.778 132.222 343.722 132.278 343.667 132.333z"/>
<path style="fill:#404040; stroke:none;" d="M310 133C311.248 133.685 311.548 133.749 313 134C311.752 133.315 311.452 133.251 310 133z"/>
<path style="fill:#555555; stroke:none;" d="M346.667 133.333C346.222 133.778 347.278 133.722 347.333 133.667C347.778 133.222 346.722 133.278 346.667 133.333z"/>
<path style="fill:#7f7f7f; stroke:none;" d="M316 134L317 135L316 134z"/>
<path style="fill:#b5b5b5; stroke:none;" d="M317 134C318.248 134.685 318.548 134.749 320 135C318.752 134.315 318.452 134.251 317 134z"/>
<path style="fill:#acacac; stroke:none;" d="M347 134L348 135L347 134z"/>
<path style="fill:#6f6f6f; stroke:none;" d="M348 134L349 135L348 134z"/>
<path style="fill:#717171; stroke:none;" d="M269 135L269 163C271.604 156.793 271.604 141.207 269 135z"/>
<path style="fill:#555555; stroke:none;" d="M319 135L320 136L319 135z"/>
<path style="fill:#868686; stroke:none;" d="M320 135C321.248 135.685 321.548 135.749 323 136C321.752 135.315 321.452 135.251 320 135z"/>
<path style="fill:#9b9b9b; stroke:none;" d="M349 135L350 136L349 135z"/>
<path style="fill:#6d6d6d; stroke:none;" d="M350 135L351 136L350 135z"/>
<path style="fill:#595959; stroke:none;" d="M322 136C323.248 136.685 323.548 136.749 325 137C323.752 136.315 323.452 136.251 322 136z"/>
<path style="fill:#c4c4c4; stroke:none;" d="M350.667 136.333C350.222 136.778 351.278 136.722 351.333 136.667C351.778 136.222 350.722 136.278 350.667 136.333z"/>
<path style="fill:#2e2e2e; stroke:none;" d="M326.667 137.333C326.222 137.778 327.278 137.722 327.333 137.667C327.778 137.222 326.722 137.278 326.667 137.333z"/>
<path style="fill:#a6a6a6; stroke:none;" d="M328 137L329 138L328 137z"/>
<path style="fill:#dcdcdc; stroke:none;" d="M329.667 137.333C329.222 137.778 330.278 137.722 330.333 137.667C330.778 137.222 329.722 137.278 329.667 137.333z"/>
<path style="fill:#2b2b2b; stroke:none;" d="M354 137L355 138L354 137z"/>
<path style="fill:#555555; stroke:none;" d="M330 138L331 139L330 138z"/>
<path style="fill:#b8b8b8; stroke:none;" d="M331.667 138.333C331.222 138.778 332.278 138.722 332.333 138.667C332.778 138.222 331.722 138.278 331.667 138.333z"/>
<path style="fill:#c3c3c3; stroke:none;" d="M354 138L355 139L354 138z"/>
<path style="fill:#555555; stroke:none;" d="M355.667 138.333C355.222 138.778 356.278 138.722 356.333 138.667C356.778 138.222 355.722 138.278 355.667 138.333z"/>
<path style="fill:#888888; stroke:none;" d="M235 139L236 140L235 139z"/>
<path style="fill:#7f7f7f; stroke:none;" d="M333 139L334 140L333 139z"/>
<path style="fill:#aaaaaa; stroke:none;" d="M334 139L335 140L334 139z"/>
<path style="fill:#b2b2b2; stroke:none;" d="M356 139L357 140L356 139z"/>
<path style="fill:#808080; stroke:none;" d="M357 139L358 140L357 139z"/>
<path style="fill:#404040; stroke:none;" d="M235 140L235 197C236.769 192.785 236 187.536 236 183L236 155C236 150.191 236.875 144.469 235 140z"/>
<path style="fill:#666666; stroke:none;" d="M335 140L336 141L335 140z"/>
<path style="fill:#cfcfcf; stroke:none;" d="M336 140L337 141L336 140z"/>
<path style="fill:#7f7f7f; stroke:none;" d="M359 140L360 141L359 140z"/>
<path style="fill:#494949; stroke:none;" d="M337 141L338 142L337 141z"/>
<path style="fill:#393939; stroke:none;" d="M361 141L362 142L361 141z"/>
<path style="fill:#4c4c4c; stroke:none;" d="M338 142L339 143L338 142z"/>
<path style="fill:#494949; stroke:none;" d="M362.667 142.333C362.222 142.778 363.278 142.722 363.333 142.667C363.778 142.222 362.722 142.278 362.667 142.333z"/>
<path style="fill:#555555; stroke:none;" d="M339 143L340 144L339 143z"/>
<path style="fill:#c6c6c6; stroke:none;" d="M340.333 143.667C340.278 143.722 340.222 144.778 340.667 144.333C340.722 144.278 340.778 143.222 340.333 143.667z"/>
<path style="fill:#a3a3a3; stroke:none;" d="M363.667 143.333C363.222 143.778 364.278 143.722 364.333 143.667C364.778 143.222 363.722 143.278 363.667 143.333z"/>
<path style="fill:#aaaaaa; stroke:none;" d="M365.667 144.333C365.222 144.778 366.278 144.722 366.333 144.667C366.778 144.222 365.722 144.278 365.667 144.333z"/>
<path style="fill:#878787; stroke:none;" d="M367 145L368 146L367 145z"/>
<path style="fill:#494949; stroke:none;" d="M368 145L369 146L368 145z"/>
<path style="fill:#b1b1b1; stroke:none;" d="M341 146L342 147L341 146z"/>
<path style="fill:#606060; stroke:none;" d="M369.667 146.333C369.222 146.778 370.278 146.722 370.333 146.667C370.778 146.222 369.722 146.278 369.667 146.333z"/>
<path style="fill:#555555; stroke:none;" d="M341 147L341 151C341.71 149.24 341.71 148.759 341 147z"/>
<path style="fill:#d1d1d1; stroke:none;" d="M370 147L371 148L370 147z"/>
<path style="fill:#9a9a9a; stroke:none;" d="M371 147L372 148L371 147z"/>
<path style="fill:#aaaaaa; stroke:none;" d="M373 148L374 149L373 148M374 149L375 150L374 149z"/>
<path style="fill:#4c4c4c; stroke:none;" d="M375 149L376 150L375 149z"/>
<path style="fill:#878787; stroke:none;" d="M376 150L377 151L376 150z"/>
<path style="fill:#555555; stroke:none;" d="M377 150L378 151L377 150z"/>
<path style="fill:#acacac; stroke:none;" d="M342 151L343 152L342 151z"/>
<path style="fill:#7f7f7f; stroke:none;" d="M378.667 151.333C378.222 151.778 379.278 151.722 379.333 151.667C379.778 151.222 378.722 151.278 378.667 151.333z"/>
<path style="fill:#6c6c6c; stroke:none;" d="M342 152L342 172C344.087 167.027 344.087 156.973 342 152z"/>
<path style="fill:#393939; stroke:none;" d="M380 152L381 153L380 152z"/>
<path style="fill:#c8c8c8; stroke:none;" d="M381 153L382 154L381 153z"/>
<path style="fill:#515151; stroke:none;" d="M382 153L383 154L382 153z"/>
<path style="fill:#767676; stroke:none;" d="M383.667 154.333C383.222 154.778 384.278 154.722 384.333 154.667C384.778 154.222 383.722 154.278 383.667 154.333z"/>
<path style="fill:#adadad; stroke:none;" d="M385 155L386 156L385 155z"/>
<path style="fill:#dfdfdf; stroke:none;" d="M386.667 156.333C386.222 156.778 387.278 156.722 387.333 156.667C387.778 156.222 386.722 156.278 386.667 156.333z"/>
<path style="fill:#555555; stroke:none;" d="M389.667 157.333C389.222 157.778 390.278 157.722 390.333 157.667C390.778 157.222 389.722 157.278 389.667 157.333z"/>
<path style="fill:#bdbdbd; stroke:none;" d="M390 158L391 159L390 158z"/>
<path style="fill:#7f7f7f; stroke:none;" d="M391 158L392 159L391 158z"/>
<path style="fill:#9c9c9c; stroke:none;" d="M392 159L393 160L392 159z"/>
<path style="fill:#7f7f7f; stroke:none;" d="M394 160L395 161L394 160z"/>
<path style="fill:#5a5a5a; stroke:none;" d="M396 161L397 162L396 161z"/>
<path style="fill:#666666; stroke:none;" d="M397.667 162.333C397.222 162.778 398.278 162.722 398.333 162.667C398.778 162.222 397.722 162.278 397.667 162.333z"/>
<path style="fill:#c8c8c8; stroke:none;" d="M398 163L399 164L398 163z"/>
<path style="fill:#404040; stroke:none;" d="M399 163L400 164L399 163z"/>
<path style="fill:#9b9b9b; stroke:none;" d="M268 164L268 220C269.769 215.785 269 210.536 269 206L269 179C269 174.191 269.875 168.469 268 164z"/>
<path style="fill:#bbbbbb; stroke:none;" d="M400 164L401 165L400 164z"/>
<path style="fill:#c8c8c8; stroke:none;" d="M401 165L402 166L401 165z"/>
<path style="fill:#404040; stroke:none;" d="M402 165L403 166L402 165z"/>
<path style="fill:#bababa; stroke:none;" d="M402 166L403 167L402 166z"/>
<path style="fill:#7f7f7f; stroke:none;" d="M403 166L404 167L403 166z"/>
<path style="fill:#b5b5b5; stroke:none;" d="M296 167C299.163 168.327 302.586 168 306 168C302.837 166.673 299.414 167 296 167z"/>
<path style="fill:#999999; stroke:none;" d="M404 167L405 168L404 167z"/>
<path style="fill:#fefefe; stroke:none;" d="M296 168C297.143 187.617 294.816 207.463 297 227C283.135 224.435 266.994 231.008 263.529 246C261.914 252.991 263.816 260.036 264 267C268.779 270.363 272.589 274.731 278 277.2C281.983 279.017 286.54 278.378 290 281C292.787 280.289 294.265 280.161 297 281C305.488 276.18 314.141 274.27 320.446 266.003C328.817 255.028 328 242.051 328 229L328 169L296 168z"/>
<path style="fill:#dcdcdc; stroke:none;" d="M306 168C309.959 169.661 314.737 169 319 169C315.041 167.339 310.263 168 306 168z"/>
<path style="fill:#999999; stroke:none;" d="M319 168L320 169L319 168z"/>
<path style="fill:#393939; stroke:none;" d="M320 168C322.613 169.098 325.165 168.993 328 169C325.387 167.902 322.836 168.007 320 168z"/>
<path style="fill:#999999; stroke:none;" d="M405 168L406 169L405 168z"/>
<path style="fill:#676767; stroke:none;" d="M328 169L328 248C330.292 242.538 329 234.887 329 229L329 190C329 183.58 330.497 174.951 328 169z"/>
<path style="fill:#9f9f9f; stroke:none;" d="M406 169L407 170L406 169z"/>
<path style="fill:#a5a5a5; stroke:none;" d="M407 170L408 171L407 170z"/>
<path style="fill:#d4d4d4; stroke:none;" d="M408.333 171.667C408.278 171.722 408.222 172.778 408.667 172.333C408.722 172.278 408.778 171.222 408.333 171.667z"/>
<path style="fill:#9b9b9b; stroke:none;" d="M296.333 172.667C296.278 172.722 296.222 173.778 296.667 173.333C296.722 173.278 296.778 172.222 296.333 172.667z"/>
<path style="fill:#464646; stroke:none;" d="M342.667 172.333C342.222 172.778 343.278 172.722 343.333 172.667C343.778 172.222 342.722 172.278 342.667 172.333z"/>
<path style="fill:#c3c3c3; stroke:none;" d="M344 172L345 173L344 172z"/>
<path style="fill:#2b2b2b; stroke:none;" d="M409 172L410 173L409 172z"/>
<path style="fill:#c1c1c1; stroke:none;" d="M347 173C348.248 173.685 348.549 173.749 350 174C348.752 173.315 348.452 173.251 347 173z"/>
<path style="fill:#bebebe; stroke:none;" d="M409 173L410 174L409 173z"/>
<path style="fill:#404040; stroke:none;" d="M410 173L411 174L410 173z"/>
<path style="fill:#c9c9c9; stroke:none;" d="M296 174L297 175L296 174z"/>
<path style="fill:#939393; stroke:none;" d="M350.667 174.333C350.222 174.778 351.278 174.722 351.333 174.667C351.778 174.222 350.722 174.278 350.667 174.333z"/>
<path style="fill:#c1c1c1; stroke:none;" d="M410 174L411 175L410 174z"/>
<path style="fill:#6c6c6c; stroke:none;" d="M353 175L354 176L353 175z"/>
<path style="fill:#a7a7a7; stroke:none;" d="M354 175L355 176L354 175z"/>
<path style="fill:#515151; stroke:none;" d="M411 175L412 176L411 175z"/>
<path style="fill:#444444; stroke:none;" d="M355.667 176.333C355.222 176.778 356.278 176.722 356.333 176.667C356.778 176.222 355.722 176.278 355.667 176.333z"/>
<path style="fill:#7f7f7f; stroke:none;" d="M359 177L360 178L359 177z"/>
<path style="fill:#b9b9b9; stroke:none;" d="M360 177L361 178L360 177z"/>
<path style="fill:#bcbcbc; stroke:none;" d="M361.667 178.333C361.222 178.778 362.278 178.722 362.333 178.667C362.778 178.222 361.722 178.278 361.667 178.333z"/>
<path style="fill:#9f9f9f; stroke:none;" d="M413.333 178.667C413.278 178.722 413.222 179.778 413.667 179.333C413.722 179.278 413.778 178.222 413.333 178.667z"/>
<path style="fill:#686868; stroke:none;" d="M363 179L364 180L363 179z"/>
<path style="fill:#606060; stroke:none;" d="M365 180L366 181L365 180z"/>
<path style="fill:#767676; stroke:none;" d="M414.333 180.667C414.278 180.722 414.222 181.778 414.667 181.333C414.722 181.278 414.778 180.222 414.333 180.667z"/>
<path style="fill:#7f7f7f; stroke:none;" d="M367 181L368 182L367 181z"/>
<path style="fill:#c0c0c0; stroke:none;" d="M368 181L369 182L368 181z"/>
<path style="fill:#acacac; stroke:none;" d="M369 182L370 183L369 182z"/>
<path style="fill:#bbbbbb; stroke:none;" d="M414 182L415 183L414 182z"/>
<path style="fill:#acacac; stroke:none;" d="M370 183L371 184L370 183z"/>
<path style="fill:#585858; stroke:none;" d="M415.333 183.667C415.278 183.722 415.222 184.778 415.667 184.333C415.722 184.278 415.778 183.222 415.333 183.667z"/>
<path style="fill:#404040; stroke:none;" d="M371 184C371.545 185.635 371.365 185.455 373 186C372.455 184.365 372.635 184.545 371 184z"/>
<path style="fill:#cfcfcf; stroke:none;" d="M372 184L373 185L372 184z"/>
<path style="fill:#cbcbcb; stroke:none;" d="M373 185L374 186L373 185z"/>
<path style="fill:#9d9d9d; stroke:none;" d="M296 186L296 196C297.346 192.793 297.346 189.207 296 186z"/>
<path style="fill:#333333; stroke:none;" d="M373 186L374 187L373 186z"/>
<path style="fill:#c1c1c1; stroke:none;" d="M374 186L375 187L374 186z"/>
<path style="fill:#464646; stroke:none;" d="M374 187L375 188L374 187z"/>
<path style="fill:#cbcbcb; stroke:none;" d="M375 187L376 188L375 187z"/>
<path style="fill:#404040; stroke:none;" d="M375 188L376 189L375 188z"/>
<path style="fill:#a4a4a4; stroke:none;" d="M376 189L377 190L376 189z"/>
<path style="fill:#a6a6a6; stroke:none;" d="M377 190L378 191L377 190z"/>
<path style="fill:#666666; stroke:none;" d="M377 191L378 192L377 191z"/>
<path style="fill:#cecece; stroke:none;" d="M416 191L416 197C416.951 194.715 416.951 193.285 416 191z"/>
<path style="fill:#8d8d8d; stroke:none;" d="M378 192L379 193L378 192z"/>
<path style="fill:#c1c1c1; stroke:none;" d="M379 194L380 195L379 194z"/>
<path style="fill:#e2e2e2; stroke:none;" d="M380.333 195.667C380.278 195.722 380.222 196.778 380.667 196.333C380.722 196.278 380.778 195.222 380.333 195.667z"/>
<path style="fill:#494949; stroke:none;" d="M224 196C226.89 197.213 229.874 196.998 233 197C230.11 195.787 227.126 196.002 224 196z"/>
<path style="fill:#7f7f7f; stroke:none;" d="M233 196L234 197L233 196z"/>
<path style="fill:#717171; stroke:none;" d="M220 197C221.248 197.685 221.549 197.749 223 198C221.752 197.315 221.452 197.251 220 197z"/>
<path style="fill:#848484; stroke:none;" d="M234.667 197.333C234.222 197.778 235.278 197.722 235.333 197.667C235.778 197.222 234.722 197.278 234.667 197.333z"/>
<path style="fill:#cacaca; stroke:none;" d="M237.333 197.667C237.278 197.722 237.222 198.778 237.667 198.333C237.722 198.278 237.778 197.222 237.333 197.667z"/>
<path style="fill:#afafaf; stroke:none;" d="M238.333 197.667C238.278 197.722 238.222 198.778 238.667 198.333C238.722 198.278 238.778 197.222 238.333 197.667z"/>
<path style="fill:#9f9f9f; stroke:none;" d="M296 197L296 201C296.71 199.24 296.71 198.759 296 197z"/>
<path style="fill:#b2b2b2; stroke:none;" d="M380 197L381 198L380 197z"/>
<path style="fill:#808080; stroke:none;" d="M416 197L417 198L416 197z"/>
<path style="fill:#555555; stroke:none;" d="M217 198L218 199L217 198z"/>
<path style="fill:#acacac; stroke:none;" d="M218.667 198.333C218.222 198.778 219.278 198.722 219.333 198.667C219.778 198.222 218.722 198.278 218.667 198.333z"/>
<path style="fill:#828282; stroke:none;" d="M240 198L241 199L240 198z"/>
<path style="fill:#2b2b2b; stroke:none;" d="M380.333 198.667C380.278 198.722 380.222 199.778 380.667 199.333C380.722 199.278 380.778 198.222 380.333 198.667z"/>
<path style="fill:#cccccc; stroke:none;" d="M215 199C216.248 199.685 216.548 199.749 218 200C216.752 199.315 216.452 199.251 215 199z"/>
<path style="fill:#7f7f7f; stroke:none;" d="M242 199L243 200L242 199z"/>
<path style="fill:#404040; stroke:none;" d="M212 200L213 201L212 200z"/>
<path style="fill:#9b9b9b; stroke:none;" d="M213 200L214 201L213 200z"/>
<path style="fill:#5c5c5c; stroke:none;" d="M244 200L245 201L244 200z"/>
<path style="fill:#c2c2c2; stroke:none;" d="M245 200C246.465 202.122 247.457 202.474 250 203C248.369 201.634 246.962 200.858 245 200z"/>
<path style="fill:#737373; stroke:none;" d="M211 201L212 202L211 201z"/>
<path style="fill:#b9b9b9; stroke:none;" d="M381 201L382 202L381 201z"/>
<path style="fill:#555555; stroke:none;" d="M209 202L210 203L209 202z"/>
<path style="fill:#a3a3a3; stroke:none;" d="M210 202L211 203L210 202z"/>
<path style="fill:#5e5e5e; stroke:none;" d="M381 202L381 208C381.951 205.715 381.951 204.285 381 202z"/>
<path style="fill:#969696; stroke:none;" d="M415 202L416 203L415 202z"/>
<path style="fill:#494949; stroke:none;" d="M208 203L209 204L208 203z"/>
<path style="fill:#8d8d8d; stroke:none;" d="M249 203L250 204L249 203z"/>
<path style="fill:#4e4e4e; stroke:none;" d="M415.333 203.667C415.278 203.722 415.222 204.778 415.667 204.333C415.722 204.278 415.778 203.222 415.333 203.667z"/>
<path style="fill:#555555; stroke:none;" d="M207 204L208 205L207 204z"/>
<path style="fill:#5d5d5d; stroke:none;" d="M206 205L207 206L206 205z"/>
<path style="fill:#949494; stroke:none;" d="M252 205L253 206L252 205z"/>
<path style="fill:#b8b8b8; stroke:none;" d="M414 205L415 206L414 205z"/>
<path style="fill:#595959; stroke:none;" d="M205 206L206 207L205 206z"/>
<path style="fill:#8f8f8f; stroke:none;" d="M253 206L254 207L253 206z"/>
<path style="fill:#6d6d6d; stroke:none;" d="M414.333 206.667C414.278 206.722 414.222 207.778 414.667 207.333C414.722 207.278 414.778 206.222 414.333 206.667z"/>
<path style="fill:#464646; stroke:none;" d="M204 207L205 208L204 207z"/>
<path style="fill:#717171; stroke:none;" d="M254 207L255 208L254 207z"/>
<path style="fill:#7d7d7d; stroke:none;" d="M255 208L256 209L255 208z"/>
<path style="fill:#a3a3a3; stroke:none;" d="M413 208L414 209L413 208z"/>
<path style="fill:#494949; stroke:none;" d="M380 209L380 213C380.71 211.24 380.71 210.76 380 209z"/>
<path style="fill:#cacaca; stroke:none;" d="M412.333 209.667C412.278 209.722 412.222 210.778 412.667 210.333C412.722 210.278 412.778 209.222 412.333 209.667z"/>
<path style="fill:#6d6d6d; stroke:none;" d="M413 209L414 210L413 209z"/>
<path style="fill:#737373; stroke:none;" d="M202 210L203 211L202 210z"/>
<path style="fill:#898989; stroke:none;" d="M201.333 211.667C201.278 211.722 201.222 212.778 201.667 212.333C201.722 212.278 201.778 211.222 201.333 211.667z"/>
<path style="fill:#969696; stroke:none;" d="M257 211L258 212L257 211z"/>
<path style="fill:#b4b4b4; stroke:none;" d="M296 211L297 212L296 211z"/>
<path style="fill:#404040; stroke:none;" d="M412 211L413 212L412 211z"/>
<path style="fill:#444444; stroke:none;" d="M200 213L201 214L200 213z"/>
<path style="fill:#c4c4c4; stroke:none;" d="M410 213L411 214L410 213z"/>
<path style="fill:#4c4c4c; stroke:none;" d="M411 213L412 214L411 213z"/>
<path style="fill:#bdbdbd; stroke:none;" d="M200 214L201 215L200 214z"/>
<path style="fill:#7f7f7f; stroke:none;" d="M410 214L411 215L410 214z"/>
<path style="fill:#aaaaaa; stroke:none;" d="M409 215L410 216L409 215z"/>
<path style="fill:#cccccc; stroke:none;" d="M199 216L199 219C199.696 217.446 199.696 217.554 199 216z"/>
<path style="fill:#9f9f9f; stroke:none;" d="M296 216L296 224C297.161 221.23 297.161 218.77 296 216z"/>
<path style="fill:#b9b9b9; stroke:none;" d="M379.333 216.667C379.278 216.722 379.222 217.778 379.667 217.333C379.722 217.278 379.778 216.222 379.333 216.667z"/>
<path style="fill:#7f7f7f; stroke:none;" d="M408 217L409 218L408 217z"/>
<path style="fill:#898989; stroke:none;" d="M407 218L408 219L407 218z"/>
<path style="fill:#a0a0a0; stroke:none;" d="M198 219L198 223C198.71 221.24 198.71 220.76 198 219z"/>
<path style="fill:#afafaf; stroke:none;" d="M378.333 219.667C378.278 219.722 378.222 220.778 378.667 220.333C378.722 220.278 378.778 219.222 378.333 219.667z"/>
<path style="fill:#8a8a8a; stroke:none;" d="M406 219L407 220L406 219z"/>
<path style="fill:#848484; stroke:none;" d="M405 220L406 221L405 220z"/>
<path style="fill:#c8c8c8; stroke:none;" d="M267 221L267 224C267.696 222.446 267.696 222.554 267 221z"/>
<path style="fill:#616161; stroke:none;" d="M377 221L378 222L377 221z"/>
<path style="fill:#7b7b7b; stroke:none;" d="M404 221L405 222L404 221z"/>
<path style="fill:#cecece; stroke:none;" d="M377 222L378 223L377 222z"/>
<path style="fill:#848484; stroke:none;" d="M403 222L404 223L403 222z"/>
<path style="fill:#878787; stroke:none;" d="M402 223L403 224L402 223z"/>
<path style="fill:#555555; stroke:none;" d="M197 224L197 227C197.696 225.446 197.696 225.554 197 224z"/>
<path style="fill:#6e6e6e; stroke:none;" d="M376 224L377 225L376 224z"/>
<path style="fill:#a5a5a5; stroke:none;" d="M400 224L401 225L400 224z"/>
<path style="fill:#8b8b8b; stroke:none;" d="M288 225C290.052 225.874 291.747 225.953 294 226C291.948 225.126 290.253 225.047 288 225z"/>
<path style="fill:#e0e0e0; stroke:none;" d="M295 225L294 227L296 227C296 225.147 296.3 225.65 295 225z"/>
<path style="fill:#b8b8b8; stroke:none;" d="M296.333 225.667C296.278 225.722 296.222 226.778 296.667 226.333C296.722 226.278 296.778 225.222 296.333 225.667z"/>
<path style="fill:#b4b4b4; stroke:none;" d="M399 225L400 226L399 225z"/>
<path style="fill:#bdbdbd; stroke:none;" d="M283 226C284.769 226.779 286.036 226.912 288 227C286.231 226.221 284.964 226.088 283 226z"/>
<path style="fill:#6b6b6b; stroke:none;" d="M299 226L300 227L299 226z"/>
<path style="fill:#bdbdbd; stroke:none;" d="M300 226L301 227L300 226z"/>
<path style="fill:#bababa; stroke:none;" d="M375 226L376 227L375 226z"/>
<path style="fill:#c6c6c6; stroke:none;" d="M397 226L396 228C397.263 227.029 397.392 227.306 397 226z"/>
<path style="fill:#6c6c6c; stroke:none;" d="M398 226L399 227L398 226z"/>
<path style="fill:#404040; stroke:none;" d="M266.333 227.667C266.278 227.722 266.222 228.778 266.667 228.333C266.722 228.278 266.778 227.222 266.333 227.667z"/>
<path style="fill:#2e2e2e; stroke:none;" d="M279 227L280 228L279 227z"/>
<path style="fill:#949494; stroke:none;" d="M280 227L281 228L280 227z"/>
<path style="fill:#727272; stroke:none;" d="M301.667 227.333C301.222 227.778 302.278 227.722 302.333 227.667C302.778 227.222 301.722 227.278 301.667 227.333z"/>
<path style="fill:#aeaeae; stroke:none;" d="M374.333 227.667C374.278 227.722 374.222 228.778 374.667 228.333C374.722 228.278 374.778 227.222 374.333 227.667z"/>
<path style="fill:#2b2b2b; stroke:none;" d="M397 227L398 228L397 227z"/>
<path style="fill:#9b9b9b; stroke:none;" d="M198 228L198 233C198.83 230.969 198.83 230.03 198 228z"/>
<path style="fill:#686868; stroke:none;" d="M277 228L278 229L277 228z"/>
<path style="fill:#c4c4c4; stroke:none;" d="M303 228L304 229L303 228z"/>
<path style="fill:#717171; stroke:none;" d="M304 228L305 229L304 228z"/>
<path style="fill:#9b9b9b; stroke:none;" d="M305 228C306.229 229.87 306.868 230.224 309 231C307.55 229.392 306.949 228.936 305 228z"/>
<path style="fill:#c4c4c4; stroke:none;" d="M394 228L395 229L394 228z"/>
<path style="fill:#404040; stroke:none;" d="M395 228L396 229L395 228z"/>
<path style="fill:#b3b3b3; stroke:none;" d="M265 229L266 230L265 229z"/>
<path style="fill:#555555; stroke:none;" d="M275 229L276 230L275 229z"/>
<path style="fill:#bcbcbc; stroke:none;" d="M276 229L277 230L276 229z"/>
<path style="fill:#d1d1d1; stroke:none;" d="M308 229L309 230L308 229z"/>
<path style="fill:#686868; stroke:none;" d="M373 229L374 230L373 229z"/>
<path style="fill:#6b6b6b; stroke:none;" d="M393 229L394 230L393 229z"/>
<path style="fill:#6e6e6e; stroke:none;" d="M265 230L266 231L265 230z"/>
<path style="fill:#cecece; stroke:none;" d="M274.667 230.333C274.222 230.778 275.278 230.722 275.333 230.667C275.778 230.222 274.722 230.278 274.667 230.333z"/>
<path style="fill:#555555; stroke:none;" d="M372 230L373 231L372 230z"/>
<path style="fill:#cbcbcb; stroke:none;" d="M373 230L374 231L373 230z"/>
<path style="fill:#939393; stroke:none;" d="M391 230L392 231L391 230z"/>
<path style="fill:#5a5a5a; stroke:none;" d="M392 230L393 231L392 230z"/>
<path style="fill:#7a7a7a; stroke:none;" d="M264.333 231.667C264.278 231.722 264.222 232.778 264.667 232.333C264.722 232.278 264.778 231.222 264.333 231.667z"/>
<path style="fill:#2b2b2b; stroke:none;" d="M272 231L273 232L272 231z"/>
<path style="fill:#b1b1b1; stroke:none;" d="M273 231L274 232L273 231z"/>
<path style="fill:#797979; stroke:none;" d="M310 231L311 232L310 231z"/>
<path style="fill:#929292; stroke:none;" d="M390 231L391 232L390 231z"/>
<path style="fill:#404040; stroke:none;" d="M271 232L272 233L271 232z"/>
<path style="fill:#b0b0b0; stroke:none;" d="M272 232L273 233L272 232z"/>
<path style="fill:#aaaaaa; stroke:none;" d="M311 232L312 233L311 232z"/>
<path style="fill:#555555; stroke:none;" d="M371 232L372 233L371 232z"/>
<path style="fill:#a3a3a3; stroke:none;" d="M388 232L389 233L388 232z"/>
<path style="fill:#c3c3c3; stroke:none;" d="M199.333 233.667C199.278 233.722 199.222 234.778 199.667 234.333C199.722 234.278 199.778 233.222 199.333 233.667z"/>
<path style="fill:#cacaca; stroke:none;" d="M263 233L264 234L263 233z"/>
<path style="fill:#7f7f7f; stroke:none;" d="M270 233L271 234L270 233z"/>
<path style="fill:#aeaeae; stroke:none;" d="M271 233L272 234L271 233z"/>
<path style="fill:#c6c6c6; stroke:none;" d="M313.333 233.667C313.278 233.722 313.222 234.778 313.667 234.333C313.722 234.278 313.778 233.222 313.333 233.667z"/>
<path style="fill:#878787; stroke:none;" d="M370.333 233.667C370.278 233.722 370.222 234.778 370.667 234.333C370.722 234.278 370.778 233.222 370.333 233.667z"/>
<path style="fill:#d4d4d4; stroke:none;" d="M371 233L372 234L371 233z"/>
<path style="fill:#c6c6c6; stroke:none;" d="M386 233L387 234L386 233z"/>
<path style="fill:#3b3b3b; stroke:none;" d="M387 233L388 234L387 233z"/>
<path style="fill:#4e4e4e; stroke:none;" d="M263 234L264 235L263 234z"/>
<path style="fill:#808080; stroke:none;" d="M269 234L270 235L269 234z"/>
<path style="fill:#8a8a8a; stroke:none;" d="M314 234L315 235L314 234z"/>
<path style="fill:#646464; stroke:none;" d="M385 234L386 235L385 234z"/>
<path style="fill:#adadad; stroke:none;" d="M268.333 235.667C268.278 235.722 268.222 236.778 268.667 236.333C268.722 236.278 268.778 235.222 268.333 235.667z"/>
<path style="fill:#9d9d9d; stroke:none;" d="M315 235L316 236L315 235z"/>
<path style="fill:#6d6d6d; stroke:none;" d="M369 235L370 236L369 235z"/>
<path style="fill:#555555; stroke:none;" d="M383.667 235.333C383.222 235.778 384.278 235.722 384.333 235.667C384.778 235.222 383.722 235.278 383.667 235.333z"/>
<path style="fill:#d2d2d2; stroke:none;" d="M261 236L262 237L261 236z"/>
<path style="fill:#464646; stroke:none;" d="M262 236L263 237L262 236z"/>
<path style="fill:#393939; stroke:none;" d="M267 236L268 237L267 236z"/>
<path style="fill:#6d6d6d; stroke:none;" d="M368 236L369 237L368 236z"/>
<path style="fill:#b6b6b6; stroke:none;" d="M381 236L382 237L381 236z"/>
<path style="fill:#7f7f7f; stroke:none;" d="M382 236L383 237L382 236z"/>
<path style="fill:#a1a1a1; stroke:none;" d="M200 237L201 238L200 237z"/>
<path style="fill:#747474; stroke:none;" d="M261 237L262 238L261 237z"/>
<path style="fill:#b1b1b1; stroke:none;" d="M267 237L268 238L267 237z"/>
<path style="fill:#6d6d6d; stroke:none;" d="M367 237L368 238L367 237z"/>
<path style="fill:#acacac; stroke:none;" d="M379 237L380 238L379 237z"/>
<path style="fill:#7f7f7f; stroke:none;" d="M380 237L381 238L380 237z"/>
<path style="fill:#404040; stroke:none;" d="M200 238L201 239L200 238z"/>
<path style="fill:#bdbdbd; stroke:none;" d="M260 238L261 239L260 238z"/>
<path style="fill:#b6b6b6; stroke:none;" d="M266 238L267 239L266 238z"/>
<path style="fill:#808080; stroke:none;" d="M317 238L318 239L317 238z"/>
<path style="fill:#cbcbcb; stroke:none;" d="M377 238L378 239L377 238z"/>
<path style="fill:#333333; stroke:none;" d="M378.667 238.333C378.222 238.778 379.278 238.722 379.333 238.667C379.778 238.222 378.722 238.278 378.667 238.333z"/>
<path style="fill:#737373; stroke:none;" d="M201 239L202 240L201 239z"/>
<path style="fill:#b7b7b7; stroke:none;" d="M259 239L260 240L259 239z"/>
<path style="fill:#404040; stroke:none;" d="M365 239L366 240L365 239z"/>
<path style="fill:#999999; stroke:none;" d="M366 239L367 240L366 239z"/>
<path style="fill:#d3d3d3; stroke:none;" d="M376 239L377 240L376 239z"/>
<path style="fill:#404040; stroke:none;" d="M377 239L378 240L377 239z"/>
<path style="fill:#9c9c9c; stroke:none;" d="M202 240L203 241L202 240z"/>
<path style="fill:#acacac; stroke:none;" d="M265 240L266 241L265 240z"/>
<path style="fill:#939393; stroke:none;" d="M365 240L366 241L365 240z"/>
<path style="fill:#b1b1b1; stroke:none;" d="M374 240L375 241L374 240z"/>
<path style="fill:#555555; stroke:none;" d="M375 240L376 241L375 240z"/>
<path style="fill:#999999; stroke:none;" d="M258 241L259 242L258 241z"/>
<path style="fill:#797979; stroke:none;" d="M264.333 241.667C264.278 241.722 264.222 242.778 264.667 242.333C264.722 242.278 264.778 241.222 264.333 241.667z"/>
<path style="fill:#898989; stroke:none;" d="M364 241L365 242L364 241z"/>
<path style="fill:#999999; stroke:none;" d="M372 241L373 242L372 241z"/>
<path style="fill:#6d6d6d; stroke:none;" d="M373 241L374 242L373 241z"/>
<path style="fill:#494949; stroke:none;" d="M203 242L204 243L203 242z"/>
<path style="fill:#999999; stroke:none;" d="M257 242L258 243L257 242z"/>
<path style="fill:#8b8b8b; stroke:none;" d="M363 242L364 243L363 242z"/>
<path style="fill:#b9b9b9; stroke:none;" d="M370 242L371 243L370 242z"/>
<path style="fill:#5a5a5a; stroke:none;" d="M371 242L372 243L371 242z"/>
<path style="fill:#515151; stroke:none;" d="M204 243L205 244L204 243z"/>
<path style="fill:#a2a2a2; stroke:none;" d="M256 243L257 244L256 243z"/>
<path style="fill:#606060; stroke:none;" d="M263.333 243.667C263.278 243.722 263.222 244.778 263.667 244.333C263.722 244.278 263.778 243.222 263.333 243.667z"/>
<path style="fill:#555555; stroke:none;" d="M361 243L362 244L361 243z"/>
<path style="fill:#8b8b8b; stroke:none;" d="M362 243L363 244L362 243z"/>
<path style="fill:#b5b5b5; stroke:none;" d="M369 243L370 244L369 243z"/>
<path style="fill:#606060; stroke:none;" d="M205 244L206 245L205 244z"/>
<path style="fill:#c5c5c5; stroke:none;" d="M254 244L255 245L254 244z"/>
<path style="fill:#8f8f8f; stroke:none;" d="M361 244L362 245L361 244z"/>
<path style="fill:#b0b0b0; stroke:none;" d="M367 244L368 245L367 244z"/>
<path style="fill:#404040; stroke:none;" d="M368 244L369 245L368 244z"/>
<path style="fill:#5a5a5a; stroke:none;" d="M206 245L207 246L206 245z"/>
<path style="fill:#b3b3b3; stroke:none;" d="M253 245L254 246L253 245z"/>
<path style="fill:#333333; stroke:none;" d="M254 245L255 246L254 245z"/>
<path style="fill:#b2b2b2; stroke:none;" d="M263 245L264 246L263 245z"/>
<path style="fill:#868686; stroke:none;" d="M360 245L361 246L360 245z"/>
<path style="fill:#8c8c8c; stroke:none;" d="M365 245L366 246L365 245z"/>
<path style="fill:#5b5b5b; stroke:none;" d="M366 245L367 246L366 245z"/>
<path style="fill:#515151; stroke:none;" d="M207 246L208 247L207 246z"/>
<path style="fill:#bcbcbc; stroke:none;" d="M252 246L253 247L252 246z"/>
<path style="fill:#494949; stroke:none;" d="M253 246L254 247L253 246z"/>
<path style="fill:#2b2b2b; stroke:none;" d="M262.333 246.667C262.278 246.722 262.222 247.778 262.667 247.333C262.722 247.278 262.778 246.222 262.333 246.667z"/>
<path style="fill:#7d7d82; stroke:none;" d="M359 246L360 247L359 246z"/>
<path style="fill:#7a7a7a; stroke:none;" d="M364 246L365 247L364 246z"/>
<path style="fill:#555555; stroke:none;" d="M208 247L209 248L208 247z"/>
<path style="fill:#2b2b2b; stroke:none;" d="M251 247L252 248L251 247z"/>
<path style="fill:#333333; stroke:none;" d="M357 247L358 248L357 247z"/>
<path style="fill:#858588; stroke:none;" d="M358 247L359 248L358 247z"/>
<path style="fill:#9f9f9f; stroke:none;" d="M362 247L363 248L362 247z"/>
<path style="fill:#b2b2b2; stroke:none;" d="M210 248L211 249L210 248z"/>
<path style="fill:#b1b1b1; stroke:none;" d="M249 248L250 249L249 248z"/>
<path style="fill:#404040; stroke:none;" d="M250 248L251 249L250 248z"/>
<path style="fill:#d9d9d9; stroke:none;" d="M262 248L262 259C263.431 255.59 263.431 251.41 262 248z"/>
<path style="fill:#8e8e8e; stroke:none;" d="M327.333 248.667C327.278 248.722 327.222 249.778 327.667 249.333C327.722 249.278 327.778 248.222 327.333 248.667z"/>
<path style="fill:#909090; stroke:none;" d="M357 248L358 249L357 248z"/>
<path style="fill:#ceced0; stroke:none;" d="M358 248C359.248 248.685 359.548 248.749 361 249C359.752 248.315 359.452 248.251 358 248z"/>
<path style="fill:#a1a1a1; stroke:none;" d="M211.667 249.333C211.222 249.778 212.278 249.722 212.333 249.667C212.778 249.222 211.722 249.278 211.667 249.333z"/>
<path style="fill:#626262; stroke:none;" d="M248 249L249 250L248 249z"/>
<path style="fill:#828282; stroke:none;" d="M356 249L357 250L356 249z"/>
<path style="fill:#dbdbdd; stroke:none;" d="M357 249L358 250L357 249z"/>
<path style="fill:#828282; stroke:none;" d="M358 249L359 250L358 249z"/>
<path style="fill:#333333; stroke:none;" d="M359 249L360 250L359 249z"/>
<path style="fill:#5b5b5b; stroke:none;" d="M212.667 250.333C212.222 250.778 213.278 250.722 213.333 250.667C213.778 250.222 212.722 250.278 212.667 250.333z"/>
<path style="fill:#c1c1c1; stroke:none;" d="M214 250L215 251L214 250z"/>
<path style="fill:#838383; stroke:none;" d="M246 250L247 251L246 250z"/>
<path style="fill:#555555; stroke:none;" d="M247 250L248 251L247 250z"/>
<path style="fill:#404040; stroke:none;" d="M356.667 250.333C356.222 250.778 357.278 250.722 357.333 250.667C357.778 250.222 356.722 250.278 356.667 250.333M215 251L216 252L215 251z"/>
<path style="fill:#d5d5d5; stroke:none;" d="M242.667 251.333C242.222 251.778 243.278 251.722 243.333 251.667C243.778 251.222 242.722 251.278 242.667 251.333z"/>
<path style="fill:#aaaaaa; stroke:none;" d="M244 251L245 252L244 251z"/>
<path style="fill:#999999; stroke:none;" d="M327 251L328 252L327 251z"/>
<path style="fill:#666666; stroke:none;" d="M217 252L218 253L217 252z"/>
<path style="fill:#b2b2b2; stroke:none;" d="M218.667 252.333C218.222 252.778 219.278 252.722 219.333 252.667C219.778 252.222 218.722 252.278 218.667 252.333z"/>
<path style="fill:#afafaf; stroke:none;" d="M240.667 252.333C240.222 252.778 241.278 252.722 241.333 252.667C241.778 252.222 240.722 252.278 240.667 252.333z"/>
<path style="fill:#7f7f7f; stroke:none;" d="M242 252L243 253L242 252z"/>
<path style="fill:#7e7e7e; stroke:none;" d="M252 252C253.248 252.685 253.548 252.749 255 253C253.752 252.315 253.452 252.251 252 252z"/>
<path style="fill:#c7c7c7; stroke:none;" d="M326 252L326 255C326.696 253.446 326.696 253.554 326 252z"/>
<path style="fill:#7c7c7c; stroke:none;" d="M220 253C221.769 253.779 223.036 253.912 225 254C223.231 253.221 221.964 253.088 220 253z"/>
<path style="fill:#7d7d7d; stroke:none;" d="M236 253C237.506 253.683 238.315 253.826 240 254C238.494 253.317 237.685 253.174 236 253z"/>
<path style="fill:#7f7f7f; stroke:none;" d="M249 253L250 254L249 253z"/>
<path style="fill:#bdbdbd; stroke:none;" d="M250.667 253.333C250.222 253.778 251.278 253.722 251.333 253.667C251.778 253.222 250.722 253.278 250.667 253.333z"/>
<path style="fill:#fefefe; stroke:none;" d="M228 259C227.992 270.56 227.021 282.701 233.955 292.829C249.46 315.476 279.102 301.233 296 289.022C300.098 286.06 304.71 283.866 308 280C298.73 282.478 290.819 286.405 281 285.684C264.943 284.505 255.002 267.339 255 253C245.959 254.33 237.033 257.317 228 259z"/>
<path style="fill:#515151; stroke:none;" d="M225 254C227.332 254.985 229.457 254.981 232 255C229.668 254.015 227.543 254.019 225 254z"/>
<path style="fill:#a4a4a4; stroke:none;" d="M232.667 254.333C232.222 254.778 233.278 254.722 233.333 254.667C233.778 254.222 232.722 254.278 232.667 254.333z"/>
<path style="fill:#555555; stroke:none;" d="M234 254L235 255L234 254z"/>
<path style="fill:#d6d6d6; stroke:none;" d="M247.667 254.333C247.222 254.778 248.278 254.722 248.333 254.667C248.778 254.222 247.722 254.278 247.667 254.333z"/>
<path style="fill:#4e4e4e; stroke:none;" d="M242.667 255.333C242.222 255.778 243.278 255.722 243.333 255.667C243.778 255.222 242.722 255.278 242.667 255.333z"/>
<path style="fill:#8c8c8c; stroke:none;" d="M244 255L245 256L244 255z"/>
<path style="fill:#7c7c7c; stroke:none;" d="M238 256C239.248 256.685 239.548 256.749 241 257C239.752 256.315 239.452 256.251 238 256z"/>
<path style="fill:#c4c4c4; stroke:none;" d="M241 256L242 257L241 256z"/>
<path style="fill:#a7a7a7; stroke:none;" d="M231 257C233.332 257.985 235.457 257.981 238 258C235.668 257.015 233.543 257.019 231 257z"/>
<path style="fill:#838383; stroke:none;" d="M325 257L326 258L325 257z"/>
<path style="fill:#e1e1e1; stroke:none;" d="M227 258L227 269C228.571 265.257 227.257 261.426 231 259C229.494 258.317 228.685 258.174 227 258z"/>
<path style="fill:#404040; stroke:none;" d="M325 258L326 259L325 258M262.333 259.667C262.278 259.722 262.222 260.778 262.667 260.333C262.722 260.278 262.778 259.222 262.333 259.667z"/>
<path style="fill:#666666; stroke:none;" d="M255 260L256 261L255 260z"/>
<path style="fill:#cfcfcf; stroke:none;" d="M323 260L324 261L323 260z"/>
<path style="fill:#555555; stroke:none;" d="M324 260L325 261L324 260z"/>
<path style="fill:#d2d2d2; stroke:none;" d="M255 261L255 264C255.696 262.446 255.696 262.554 255 261z"/>
<path style="fill:#9f9f9f; stroke:none;" d="M323 261L324 262L323 261z"/>
<path style="fill:#5b5b5b; stroke:none;" d="M263.333 262.667C263.278 262.722 263.222 263.778 263.667 263.333C263.722 263.278 263.778 262.222 263.333 262.667z"/>
<path style="fill:#494949; stroke:none;" d="M323 262L324 263L323 262z"/>
<path style="fill:#333333; stroke:none;" d="M256 263L257 264L256 263z"/>
<path style="fill:#a3a3a3; stroke:none;" d="M322 263L323 264L322 263z"/>
<path style="fill:#a4a4a4; stroke:none;" d="M256.333 264.667C256.278 264.722 256.222 265.778 256.667 265.333C256.722 265.278 256.778 264.222 256.333 264.667z"/>
<path style="fill:#c7c7c7; stroke:none;" d="M264 264L265 265L264 264z"/>
<path style="fill:#a3a3a3; stroke:none;" d="M321 264L322 265L321 264z"/>
<path style="fill:#797979; stroke:none;" d="M264 265L265 266L264 265z"/>
<path style="fill:#4e4e4e; stroke:none;" d="M321 265L322 266L321 265z"/>
<path style="fill:#999999; stroke:none;" d="M257.333 266.667C257.278 266.722 257.222 267.778 257.667 267.333C257.722 267.278 257.778 266.222 257.333 266.667z"/>
<path style="fill:#8d8d8d; stroke:none;" d="M320 266L321 267L320 266z"/>
<path style="fill:#7f7f7f; stroke:none;" d="M319 267L320 268L319 267z"/>
<path style="fill:#4e4e4e; stroke:none;" d="M258 268L259 269L258 268z"/>
<path style="fill:#929292; stroke:none;" d="M266 268L267 269L266 268z"/>
<path style="fill:#848484; stroke:none;" d="M318 268L319 269L318 268z"/>
<path style="fill:#bbbbbb; stroke:none;" d="M258 269L259 270L258 269z"/>
<path style="fill:#999999; stroke:none;" d="M267 269L268 270L267 269z"/>
<path style="fill:#555555; stroke:none;" d="M317.333 269.667C317.278 269.722 317.222 270.778 317.667 270.333C317.722 270.278 317.778 269.222 317.333 269.667z"/>
<path style="fill:#e8e8e8; stroke:none;" d="M227 270L227 274C227.71 272.24 227.71 271.76 227 270z"/>
<path style="fill:#404040; stroke:none;" d="M267 270L268 271L267 270z"/>
<path style="fill:#919191; stroke:none;" d="M268 270L269 271L268 270z"/>
<path style="fill:#838383; stroke:none;" d="M316 270L317 271L316 270z"/>
<path style="fill:#939393; stroke:none;" d="M269 271L270 272L269 271z"/>
<path style="fill:#7d7d7d; stroke:none;" d="M315 271L316 272L315 271z"/>
<path style="fill:#a5a5a5; stroke:none;" d="M260 272L261 273L260 272z"/>
<path style="fill:#8f8f8f; stroke:none;" d="M270 272L271 273L270 272z"/>
<path style="fill:#7a7a7a; stroke:none;" d="M314 272L315 273L314 272z"/>
<path style="fill:#555555; stroke:none;" d="M261 273L262 274L261 273z"/>
<path style="fill:#909090; stroke:none;" d="M271 273L272 274L271 273z"/>
<path style="fill:#a4a4a4; stroke:none;" d="M312 273L313 274L312 273z"/>
<path style="fill:#666666; stroke:none;" d="M313 273L314 274L313 273z"/>
<path style="fill:#393939; stroke:none;" d="M227 274L227 279C227.83 276.969 227.83 276.031 227 274z"/>
<path style="fill:#404040; stroke:none;" d="M262 274L263 275L262 274z"/>
<path style="fill:#929292; stroke:none;" d="M272 274L273 275L272 274z"/>
<path style="fill:#a5a5a5; stroke:none;" d="M311 274L312 275L311 274z"/>
<path style="fill:#404040; stroke:none;" d="M312 274L313 275L312 274z"/>
<path style="fill:#bbbbbb; stroke:none;" d="M274 275L275 276L274 275z"/>
<path style="fill:#c4c4c4; stroke:none;" d="M308.667 275.333C308.222 275.778 309.278 275.722 309.333 275.667C309.778 275.222 308.722 275.278 308.667 275.333z"/>
<path style="fill:#767676; stroke:none;" d="M263 276L264 277L263 276z"/>
<path style="fill:#8f8f8f; stroke:none;" d="M275 276L276 277L275 276z"/>
<path style="fill:#c5c5c5; stroke:none;" d="M276 276L277 277L276 276z"/>
<path style="fill:#969696; stroke:none;" d="M307 276L308 277L307 276z"/>
<path style="fill:#494949; stroke:none;" d="M308 276L309 277L308 276z"/>
<path style="fill:#7e7e7e; stroke:none;" d="M264 277L265 278L264 277z"/>
<path style="fill:#7a7a7a; stroke:none;" d="M277.667 277.333C277.222 277.778 278.278 277.722 278.333 277.667C278.778 277.222 277.722 277.278 277.667 277.333z"/>
<path style="fill:#626262; stroke:none;" d="M305.667 277.333C305.222 277.778 306.278 277.722 306.333 277.667C306.778 277.222 305.722 277.278 305.667 277.333z"/>
<path style="fill:#555555; stroke:none;" d="M266 278L267 279L266 278z"/>
<path style="fill:#4c4c4c; stroke:none;" d="M279 278L280 279L279 278z"/>
<path style="fill:#959595; stroke:none;" d="M280 278L281 279L280 278z"/>
<path style="fill:#393939; stroke:none;" d="M303 278L304 279L303 278z"/>
<path style="fill:#9f9f9f; stroke:none;" d="M304 278L305 279L304 278z"/>
<path style="fill:#404040; stroke:none;" d="M308 278L309 279L308 278z"/>
<path style="fill:#cdcdcd; stroke:none;" d="M309.333 278.667C309.278 278.722 309.222 279.778 309.667 279.333C309.722 279.278 309.778 278.222 309.333 278.667M228 279L229 280L228 279z"/>
<path style="fill:#555555; stroke:none;" d="M267 279L268 280L267 279z"/>
<path style="fill:#7f7f7f; stroke:none;" d="M283 279L284 280L283 279z"/>
<path style="fill:#bababa; stroke:none;" d="M284 279C286.052 279.874 287.747 279.953 290 280C287.948 279.126 286.253 279.047 284 279z"/>
<path style="fill:#bebebe; stroke:none;" d="M294.667 279.333C294.222 279.778 295.278 279.722 295.333 279.667C295.778 279.222 294.722 279.278 294.667 279.333z"/>
<path style="fill:#bababa; stroke:none;" d="M298 279L299 280L298 279z"/>
<path style="fill:#7f7f7f; stroke:none;" d="M299 279L300 280L299 279z"/>
<path style="fill:#ffffff; stroke:none;" d="M305 279L306 280L305 279z"/>
<path style="fill:#666666; stroke:none;" d="M306 279L307 280L306 279z"/>
<path style="fill:#9f9f9f; stroke:none;" d="M307 279L308 280L307 279z"/>
<path style="fill:#fbfbfb; stroke:none;" d="M308 279L309 280L308 279z"/>
<path style="fill:#616161; stroke:none;" d="M228.333 280.667C228.278 280.722 228.222 281.778 228.667 281.333C228.722 281.278 228.778 280.222 228.333 280.667z"/>
<path style="fill:#5a5a5a; stroke:none;" d="M268 280L269 281L268 280z"/>
<path style="fill:#aaaaaa; stroke:none;" d="M291.667 280.333C291.222 280.778 292.278 280.722 292.333 280.667C292.778 280.222 291.722 280.278 291.667 280.333z"/>
<path style="fill:#686868; stroke:none;" d="M304 280L305 281L304 280z"/>
<path style="fill:#969696; stroke:none;" d="M305 280L306 281L305 280z"/>
<path style="fill:#949494; stroke:none;" d="M308 280L309 281L308 280z"/>
<path style="fill:#bebebe; stroke:none;" d="M269 281L270 282L269 281z"/>
<path style="fill:#333333; stroke:none;" d="M270 281L271 282L270 281z"/>
<path style="fill:#c0c0c0; stroke:none;" d="M302.667 281.333C302.222 281.778 303.278 281.722 303.333 281.667C303.778 281.222 302.722 281.278 302.667 281.333z"/>
<path style="fill:#4c4c4c; stroke:none;" d="M307 281L308 282L307 281z"/>
<path style="fill:#8b8b8b; stroke:none;" d="M229.333 282.667C229.278 282.722 229.222 283.778 229.667 283.333C229.722 283.278 229.778 282.222 229.333 282.667z"/>
<path style="fill:#bbbbbb; stroke:none;" d="M271 282L272 283L271 282z"/>
<path style="fill:#393939; stroke:none;" d="M272 282L273 283L272 282z"/>
<path style="fill:#404040; stroke:none;" d="M298 282L299 283L298 282z"/>
<path style="fill:#858585; stroke:none;" d="M299 282L300 283L299 282z"/>
<path style="fill:#2b2b2b; stroke:none;" d="M306 282L307 283L306 282z"/>
<path style="fill:#929292; stroke:none;" d="M273 283L274 284L273 283z"/>
<path style="fill:#666666; stroke:none;" d="M274 283L275 284L274 283z"/>
<path style="fill:#676767; stroke:none;" d="M295.667 283.333C295.222 283.778 296.278 283.722 296.333 283.667C296.778 283.222 295.722 283.278 295.667 283.333z"/>
<path style="fill:#666666; stroke:none;" d="M304 283L305 284L304 283z"/>
<path style="fill:#5d5d5d; stroke:none;" d="M229 284L230 285L229 284z"/>
<path style="fill:#bdbdbd; stroke:none;" d="M230 284L230 287C230.696 285.446 230.696 285.554 230 284z"/>
<path style="fill:#999999; stroke:none;" d="M275 284C276.248 284.685 276.548 284.749 278 285C276.752 284.315 276.452 284.251 275 284z"/>
<path style="fill:#555555; stroke:none;" d="M291 284L292 285L291 284z"/>
<path style="fill:#999999; stroke:none;" d="M292 284C293.248 284.685 293.548 284.749 295 285C293.752 284.315 293.452 284.251 292 284z"/>
<path style="fill:#717171; stroke:none;" d="M302.667 284.333C302.222 284.778 303.278 284.722 303.333 284.667C303.778 284.222 302.722 284.278 302.667 284.333z"/>
<path style="fill:#c4c4c4; stroke:none;" d="M278 285C280.052 285.874 281.747 285.953 284 286C281.948 285.126 280.253 285.047 278 285z"/>
<path style="fill:#c0c0c0; stroke:none;" d="M285 285C287.331 285.984 289.457 285.981 292 286C289.668 285.015 287.543 285.019 285 285z"/>
<path style="fill:#828282; stroke:none;" d="M301 285L302 286L301 285z"/>
<path style="fill:#a0a0a0; stroke:none;" d="M299 286L300 287L299 286z"/>
<path style="fill:#494949; stroke:none;" d="M300 286L301 287L300 286z"/>
<path style="fill:#c7c7c7; stroke:none;" d="M297 287L298 288L297 287z"/>
<path style="fill:#9b9b9b; stroke:none;" d="M298 287L299 288L298 287z"/>
<path style="fill:#898989; stroke:none;" d="M231 288L232 289L231 288z"/>
<path style="fill:#bcbcbc; stroke:none;" d="M296 288L297 289L296 288z"/>
<path style="fill:#404040; stroke:none;" d="M297 288L298 289L297 288M231 289L232 290L231 289z"/>
<path style="fill:#555555; stroke:none;" d="M295.667 289.333C295.222 289.778 296.278 289.722 296.333 289.667C296.778 289.222 295.722 289.278 295.667 289.333z"/>
<path style="fill:#717171; stroke:none;" d="M232 290L233 291L232 290z"/>
<path style="fill:#333333; stroke:none;" d="M294 290L295 291L294 290z"/>
<path style="fill:#404040; stroke:none;" d="M232 291L233 292L232 291z"/>
<path style="fill:#646464; stroke:none;" d="M292 291L293 292L292 291z"/>
<path style="fill:#595959; stroke:none;" d="M233 292L234 293L233 292z"/>
<path style="fill:#7f7f7f; stroke:none;" d="M291 292L292 293L291 292z"/>
<path style="fill:#aeaeae; stroke:none;" d="M288 293L289 294L288 293z"/>
<path style="fill:#646464; stroke:none;" d="M289 293L290 294L289 293z"/>
<path style="fill:#e5e5e5; stroke:none;" d="M286.667 294.333C286.222 294.778 287.278 294.722 287.333 294.667C287.778 294.222 286.722 294.278 286.667 294.333z"/>
<path style="fill:#555555; stroke:none;" d="M288 294L289 295L288 294z"/>
<path style="fill:#404040; stroke:none;" d="M235 295L236 296L235 295z"/>
<path style="fill:#c5c5c5; stroke:none;" d="M236 295L237 296L236 295z"/>
<path style="fill:#c6c6c6; stroke:none;" d="M285 295L286 296L285 295z"/>
<path style="fill:#404040; stroke:none;" d="M286 295L287 296L286 295z"/>
<path style="fill:#393939; stroke:none;" d="M236 296L237 297L236 296z"/>
<path style="fill:#c1c1c1; stroke:none;" d="M237 296L238 297L237 296z"/>
<path style="fill:#848484; stroke:none;" d="M284 296L285 297L284 296z"/>
<path style="fill:#494949; stroke:none;" d="M237 297L238 298L237 297M282.667 297.333C282.222 297.778 283.278 297.722 283.333 297.667C283.778 297.222 282.722 297.278 282.667 297.333z"/>
<path style="fill:#888888; stroke:none;" d="M280 298L281 299L280 298z"/>
<path style="fill:#555555; stroke:none;" d="M281 298L282 299L281 298z"/>
<path style="fill:#a7a7a7; stroke:none;" d="M240 299L241 300L240 299z"/>
<path style="fill:#b6b6b6; stroke:none;" d="M278 299L279 300L278 299z"/>
<path style="fill:#666666; stroke:none;" d="M241 300L242 301L241 300z"/>
<path style="fill:#bbbbbb; stroke:none;" d="M276 300L277 301L276 300z"/>
<path style="fill:#888888; stroke:none;" d="M277 300L278 301L277 300z"/>
<path style="fill:#686868; stroke:none;" d="M243 301L244 302L243 301z"/>
<path style="fill:#555555; stroke:none;" d="M275.667 301.333C275.222 301.778 276.278 301.722 276.333 301.667C276.778 301.222 275.722 301.278 275.667 301.333z"/>
<path style="fill:#7f7f7f; stroke:none;" d="M245 302L246 303L245 302z"/>
<path style="fill:#e1e1e1; stroke:none;" d="M246.667 302.333C246.222 302.778 247.278 302.722 247.333 302.667C247.778 302.222 246.722 302.278 246.667 302.333z"/>
<path style="fill:#d0d0d0; stroke:none;" d="M271 302L272 303L271 302z"/>
<path style="fill:#898989; stroke:none;" d="M272 302L273 303L272 302z"/>
<path style="fill:#555555; stroke:none;" d="M247 303L248 304L247 303z"/>
<path style="fill:#aeaeae; stroke:none;" d="M248.667 303.333C248.222 303.778 249.278 303.722 249.333 303.667C249.778 303.222 248.722 303.278 248.667 303.333z"/>
<path style="fill:#c8c8c8; stroke:none;" d="M268 303C269.248 303.685 269.548 303.749 271 304C269.752 303.315 269.452 303.251 268 303z"/>
<path style="fill:#7f7f7f; stroke:none;" d="M250 304C251.506 304.683 252.315 304.826 254 305C252.494 304.317 251.685 304.174 250 304z"/>
<path style="fill:#7e7e7e; stroke:none;" d="M264 304C265.506 304.683 266.315 304.826 268 305C266.494 304.317 265.685 304.174 264 304z"/>
<path style="fill:#555555; stroke:none;" d="M255 305C257.613 306.098 260.165 305.993 263 306C260.387 304.902 257.836 305.007 255 305z"/>
</svg>
